<?xml version="1.0"?><svg width="296.084" height="215.045" xmlns="http://www.w3.org/2000/svg">
 <title>adorable pink elephant</title>

 <g>
  <title>Layer 1</title>
  <g id="layer1">
   <path d="m194.481995,1.024994c-15.574005,-0.423004 -27.404999,4.824005 -38.483002,14.717987c-7.678986,-6.210999 -21.190002,-5.458984 -31.461975,-6.936981c-42.463013,-4.046997 -87.74202,12.481995 -109.415009,49.223999c-9.258011,14.343994 -18.078003,31.238007 -15.742004,49.307983c1.578995,8.031982 12.138992,9.075989 17.440002,4.687012c1.599991,-0.315002 3.418991,-5.125 3.830002,-1.625c4.162003,12.11499 12.996994,22.224976 19.35199,33.25c3.240005,19.638977 -8.465988,38.674988 -2.127991,58.156006c7.306992,13.234985 24.505997,15.098999 37.780991,13.875c10.598007,-0.255981 24.270996,1.531006 31.324005,-7.687012c5.326996,-10.450012 -4.787994,-20.859985 -7.490997,-30.906006c-1.709991,-5.278015 -3.213013,-13.255981 1.520996,-16.75c4.972015,0.73999 8.821991,5.343994 14.126007,5.312012c9.893005,2.015015 19.923004,-1.369019 29.285004,-1.906006c7.311981,11.319031 0.613983,24.130005 0.200989,36c-0.070984,7.424988 6.096008,13.517029 13.341003,14.5c12.303986,3.075989 25.083984,1.476013 37.338989,0.562012c8.997009,-1.960999 15.528015,-11.966003 11.286011,-21.062012c-3.782013,-11.263 -9.123993,-23.416016 -4.707001,-34.812988c2.350006,-7.750977 9.570007,-12.184021 16.778992,-14.593018c1.720001,-0.932983 7.838013,-5.386963 7.347015,-3.692017c-8.799011,9.853027 -20.621002,21.585022 -16.820007,36.660034c2.503998,10.739014 8.351013,22.172974 18.401001,27.687988c13.89801,6.039978 32.244995,-6.492981 28.315002,-21.781006c-1.261993,-4.534973 -5.778015,-7.315979 -9.145996,-9.718994c1.505981,-5.968994 8.686981,-8.445984 12.751007,-12.531006c14.176971,-10.299011 26.959991,-23.547974 31.464996,-41.093994c10.299988,-33.359009 0.894989,-73.53299 -24.249023,-99.653992c-15.556,-13.636993 -36.932983,-15.365997 -56.109985,-18.408997c-5.368988,-0.580017 -10.761993,-0.899994 -16.131012,-0.781006z" fill="#000000" id="path3175"/>
   <path d="m265.408997,146.160004c8.770996,-7.554016 24.050964,-23.921997 22.445007,-57.916016c-1.605957,-33.993988 -20.719971,-65.470001 -37.296021,-69.876984c-16.574951,-4.406006 -83.775024,-27.699005 -94.015991,22.03299c-10.240967,49.732971 31.45105,66.099976 42.064026,64.211975c10.612,-1.888977 21.323975,-28.328979 21.323975,-28.328979c0,0 -3.66803,28.958008 -16.738953,32.106018c-13.071045,3.146973 -46.045044,-1.889038 -55.324036,-38.401001c-9.278992,-36.512024 9.76001,-46.585022 -2.979004,-49.732025c-16.967987,-4.192993 -62.169006,-10.072998 -97.461975,15.738007c-35.29303,25.809998 -46.163025,75.541992 -36.958008,70.505981c9.204987,-5.03595 12.837982,-21.402985 15.291992,-9.442993c2.452972,11.960999 12.158997,30.847046 20.700012,38.401001c8.539978,7.554016 -3.766998,53.51001 -1.492004,61.692993c2.274994,8.184021 15.613983,10.702026 25.685974,10.702026c10.072998,0 32.765015,0.630005 31.179016,-6.294983c-1.585999,-6.925049 -9.735016,-19.515015 -10.98999,-32.735046c-1.253998,-13.219971 7.980988,-17.626953 11.787994,-16.996948c3.807007,0.628967 5.937988,6.075989 21.700989,6.294983c15.111969,0.210022 14.899994,-4.406982 21.225006,-3.777039c6.325012,0.629028 10.549011,10.072021 11.083984,21.404053c0.535034,11.330994 -3.424988,20.773987 -3.127991,27.06897c0.298035,6.294983 45.683044,7.554016 47.213989,0c1.532043,-7.554016 -6.497986,-17.627014 -6.944031,-27.06897c-0.445923,-9.442993 -0.079956,-28.329041 11.643066,-33.365051c11.723022,-5.03595 23.777954,-16.367981 31.689941,-8.812988c7.911011,7.554016 -19.67395,23.291992 -19.648926,37.140991c0.023926,13.850037 12.668945,28.329041 15.816956,28.329041c3.147034,0 16.189026,-3.777039 16.461975,-11.330994c0.272034,-7.554993 -10.310974,-5.037048 -10.726929,-13.850037c-0.416016,-8.812988 17.255005,-19.830994 26.389954,-27.698975z" fill="#ffaad4" id="path2383"/>
   <path d="m262.446991,81.617981a6.29522,6.29522 0 1 1 -12.589996,0a6.29522,6.29522 0 1 1 12.589996,0z" id="path3195"/>
   <path d="m271.186005,131.261993c4.5,-3.5 -7,-11 -11.5,-18c-4.5,-7 -13.5,4.5 -11,11.5c2.5,7 17,9 22.5,6.5z" fill="#ffffff" id="path3217"/>
   <path d="m90.037003,211.501007c7.728012,-1.061035 17.190994,-2.829041 16.957016,-7.778992c-0.234009,-4.949036 -6.40802,-15.910034 -6.40802,-15.910034c0,0 -5.033997,-1.766968 -9.05899,2.829041c-4.026001,4.595947 -4.417999,18.737976 -1.490005,20.859985z" fill="#ffffff" id="path3219"/>
   <path d="m189.739014,212.009003c7.727997,-1.061035 17.190979,-2.828979 16.957001,-7.778992c-0.234009,-4.949036 -6.40802,-15.910034 -6.40802,-15.910034c0,0 -5.033997,-1.766968 -9.05899,2.829041c-4.026001,4.595947 -4.417999,18.737976 -1.48999,20.859985z" fill="#ffffff" id="path3221"/>
  </g>
 </g>
</svg>